<?xml version="1.0" encoding="UTF-8" standalone="no"?><!DOCTYPE svg PUBLIC "-//W3C//DTD SVG 1.1//EN" "http://www.w3.org/Graphics/SVG/1.1/DTD/svg11.dtd"><svg width="100%" height="100%" viewBox="0 0 1211 711" version="1.1" xmlns="http://www.w3.org/2000/svg" xmlnsXlink="http://www.w3.org/1999/xlink" xmlSpace="preserve" xmlnsSerif="http://www.serif.com/" style="fill-rule:evenodd;clip-rule:evenodd;stroke-linecap:round;stroke-linejoin:round;stroke-miterlimit:2;"><g><g><path d="M127.382,374.982l108.153,0.131c4.215,0.022 8.287,-2.689 8.434,-7.988l-0.043,-86.668l0.05,-0.048l37.395,-0.135l-0,31.748c-0,12.073 9.786,21.859 21.859,21.859c12.073,0 21.859,-9.786 21.859,-21.859l0,-31.1c3.761,-0.119 26.43,-0.977 37.229,-4.507l-0.462,89.407c-0.117,5.716 3.816,9.291 8.421,9.291l106.679,-0.03c2.478,0.03 10.347,-0.283 10.347,-9.456l0,-332.004c0,-4.688 -3.109,-8.857 -8.801,-8.599l-107.436,-0.369c-2.726,0.027 -9.181,1.519 -8.989,9.432l-0.032,29.737c-0.879,-0.156 -14.401,-2.535 -26.026,-3.363c-0.004,-0 -0.008,-0 -0.011,-0.001c-1.409,-0.125 -3.127,-0.203 -4.928,-0.25c-0.019,-0.001 -0.038,-0.001 -0.058,-0.002c-5.724,-0.147 -12.249,0.021 -12.252,0.021c-5.596,0.059 -12.972,0.247 -18.243,0.795c-9.626,1.004 -20.455,2.708 -22.46,22.66c-0,0 -0.1,24.867 24.465,23.363c24.566,-1.504 40.508,-1.202 59.459,7.62l-0.031,28.771l-37.268,-0.08c0.384,-9.397 -1.542,-16.058 -8.249,-22.188c-6.729,-6.15 -15.375,-8.868 -23.708,-9.803c-8.334,-0.937 -17.983,0.512 -25.603,4.522c-7.621,4.011 -10.852,8.757 -11.877,10.229c-0.994,1.427 -9.248,16.197 -9.737,17.072l-1.471,-0.004l0,-111.441c-0.125,-3.464 -4.163,-6.623 -7.409,-6.835l-110.678,0c-3.055,0.24 -6.602,2.208 -6.931,8.324l-0,332.279c-0.264,7.49 5.718,9.544 8.353,9.469Z" style="fill:#114370;fill-rule:nonzero;"/><path d="M92.943,634.296l12.828,0l0,47.854l8.453,-0l-0,-47.854l12.857,0l-0,-7.943l-34.138,-0l-0,7.943Z" style="fill:#114370;fill-rule:nonzero;"/><path d="M179.872,669.184c-3.983,4.057 -8.967,6.073 -14.855,6.073c-5.402,0 -10.169,-1.995 -14.278,-5.971c-4.182,-3.967 -6.241,-9.042 -6.241,-15.196c-0,-5.868 1.988,-10.806 6.012,-14.798c4.011,-4.026 8.929,-6.07 14.737,-6.07c5.859,-0 10.739,2.044 14.729,6.07c3.95,4.025 5.963,9.01 5.963,14.944c0,5.862 -2.024,10.845 -6.067,14.948Zm-14.483,-43.879c-8.105,-0 -14.993,2.83 -20.734,8.459c-5.811,5.657 -8.698,12.376 -8.698,20.217c-0,8.952 3.197,16.197 9.519,21.688c5.74,5.006 12.237,7.484 19.436,7.484c8.198,-0 15.143,-2.779 20.927,-8.43c5.737,-5.579 8.631,-12.381 8.631,-20.389c0,-7.967 -2.865,-14.813 -8.582,-20.502c-5.699,-5.697 -12.547,-8.527 -20.499,-8.527Z" style="fill:#114370;fill-rule:nonzero;"/><path d="M239.536,669.038c-2.028,1.834 -4.33,3.178 -6.825,4.003c-2.498,0.802 -5.647,1.184 -9.447,1.184l-3.805,-0l0,-39.929l3.805,0c7.205,0 12.64,1.682 16.359,5.079c4.113,3.806 6.164,8.771 6.164,14.888c0,6.076 -2.094,10.992 -6.251,14.775Zm6.075,-35.496c-2.849,-2.576 -6.004,-4.446 -9.514,-5.537c-3.271,-1.109 -7.723,-1.652 -13.351,-1.652l-11.716,-0l0,55.797l11.587,-0c5.683,-0 10.053,-0.523 13.138,-1.544c3.33,-1.042 6.497,-2.894 9.514,-5.539c5.994,-5.31 9.029,-12.223 9.029,-20.804c0,-8.55 -2.905,-15.45 -8.687,-20.721Z" style="fill:#114370;fill-rule:nonzero;"/><path d="M280.522,660.691l8.687,-18.976l8.298,18.976l-16.985,0Zm-18.879,21.459l9.133,-0l6.219,-13.547l23.959,-0l5.849,13.547l9.253,-0l-26.709,-59.27l-27.704,59.27Z" style="fill:#114370;fill-rule:nonzero;"/><path d="M366.263,626.353l-8.415,-0l0,55.797l24.862,-0l0,-7.925l-16.447,-0l0,-47.872Z" style="fill:#114370;fill-rule:nonzero;"/><path d="M412.19,660.693l8.707,-18.978l8.31,18.978l-17.017,0Zm-18.853,21.457l9.12,-0l6.231,-13.547l23.946,-0l5.884,13.547l9.243,-0l-26.723,-59.27l-27.701,59.27Z" style="fill:#114370;fill-rule:nonzero;"/><path d="M507.808,665.022l-15.468,-38.669l-9.231,-0l24.503,59.992l25.133,-59.992l-9.25,-0l-15.687,38.669Z" style="fill:#114370;fill-rule:nonzero;"/><rect x="545.619" y="626.353" width="8.467" height="55.797" style="fill:#114370;fill-rule:nonzero;"/><path d="M601.969,669.038c-2.034,1.834 -4.29,3.178 -6.827,4.003c-2.507,0.802 -5.653,1.184 -9.435,1.184l-3.805,-0l-0,-39.929l3.805,0c7.184,0 12.644,1.682 16.329,5.079c4.092,3.806 6.172,8.771 6.172,14.888c0,6.076 -2.08,10.992 -6.239,14.775Zm6.086,-35.505c-2.842,-2.569 -6.019,-4.437 -9.533,-5.528c-3.246,-1.109 -7.721,-1.652 -13.342,-1.652l-11.748,-0l0,55.797l11.619,-0c5.679,-0 10.066,-0.523 13.154,-1.544c3.297,-1.042 6.486,-2.894 9.493,-5.539c6.004,-5.31 9.033,-12.222 9.033,-20.804c0,-8.55 -2.928,-15.45 -8.676,-20.73Z" style="fill:#114370;fill-rule:nonzero;"/><path d="M642.944,660.693l8.687,-18.978l8.309,18.978l-16.996,0Zm-18.828,21.457l9.089,-0l6.211,-13.547l23.948,-0l5.892,13.547l9.229,-0l-26.683,-59.27l-27.686,59.27Z" style="fill:#114370;fill-rule:nonzero;"/><path d="M724.528,635.504c-4.726,5.551 -7.053,11.889 -7.053,19.018c0,7.911 2.812,14.694 8.437,20.312c5.64,5.54 12.462,8.319 20.454,8.319c5.318,-0 10.39,-1.358 15.224,-4.098l0,-10.17c-1.371,1.166 -2.677,2.167 -3.935,2.971c-1.263,0.844 -2.437,1.459 -3.616,1.958c-2.067,0.944 -4.591,1.443 -7.579,1.443c-5.708,0 -10.589,-2.016 -14.543,-6.041c-3.968,-4.021 -5.938,-8.972 -5.938,-14.809c-0,-5.925 1.97,-10.946 5.938,-15.032c3.893,-4.109 8.781,-6.193 14.535,-6.193c5.185,0 10.25,2.036 15.138,6.11l0,-9.954c-4.695,-2.707 -9.539,-4.073 -14.545,-4.073c-9.234,0 -16.731,3.413 -22.517,10.239Z" style="fill:#114370;fill-rule:nonzero;"/><path d="M818.94,669.184c-4.036,4.057 -8.984,6.073 -14.86,6.073c-5.389,0 -10.16,-1.995 -14.307,-5.971c-4.132,-3.971 -6.217,-9.042 -6.217,-15.196c-0,-5.868 1.999,-10.808 6.001,-14.798c4.024,-4.026 8.947,-6.07 14.77,-6.07c5.821,-0 10.726,2.044 14.71,6.07c3.968,4.025 5.978,9.01 5.978,14.944c0,5.862 -2.026,10.845 -6.075,14.948Zm-14.532,-43.879c-8.056,-0 -14.952,2.832 -20.726,8.459c-5.77,5.657 -8.641,12.376 -8.641,20.217c0,8.952 3.133,16.197 9.503,21.688c5.723,5.006 12.222,7.484 19.428,7.484c8.161,-0 15.121,-2.779 20.943,-8.43c5.725,-5.579 8.594,-12.381 8.594,-20.389c0,-7.967 -2.836,-14.813 -8.578,-20.502c-5.682,-5.695 -12.544,-8.527 -20.523,-8.527Z" style="fill:#114370;fill-rule:nonzero;"/><path d="M890.88,665.14l-40.819,-42.554l-0,59.564l8.444,-0l0,-39.058l40.815,42.465l-0,-59.204l-8.44,-0l-0,38.787Z" style="fill:#114370;fill-rule:nonzero;"/><path d="M912.755,634.296l12.902,0l-0,47.854l8.44,-0l-0,-47.854l12.803,0l0,-7.943l-34.145,-0l-0,7.943Z" style="fill:#114370;fill-rule:nonzero;"/><rect x="960.387" y="626.353" width="8.407" height="55.797" style="fill:#114370;fill-rule:nonzero;"/><path d="M1016.95,661.02l13.975,-0c-0.376,3.91 -2.249,7.268 -5.562,10.08c-3.303,2.78 -7.02,4.183 -11.189,4.183c-4.895,-0 -9.401,-1.889 -13.599,-5.602c-4.461,-4.011 -6.691,-9.14 -6.691,-15.347c-0,-6.03 2.015,-11.052 6.014,-15.042c4.018,-4.074 8.978,-6.11 14.888,-6.11c6.625,0 12.205,3.053 16.788,9.145l6.023,-5.751c-3.501,-3.995 -7.048,-6.872 -10.709,-8.648c-3.783,-1.78 -7.867,-2.663 -12.243,-2.663c-8.131,0 -15.057,2.838 -20.704,8.499c-5.665,5.657 -8.507,12.497 -8.507,20.607c-0,7.929 2.767,14.711 8.357,20.352c5.552,5.651 12.252,8.478 20.11,8.478c8.009,-0 14.634,-2.9 19.81,-8.744c2.286,-2.601 3.924,-5.39 4.874,-8.392c1.017,-3.22 1.487,-6.928 1.487,-11.127l0,-1.849l-23.122,-0l0,7.931Z" style="fill:#114370;fill-rule:nonzero;"/><path d="M1097.79,669.184c-4.075,4.057 -9.006,6.073 -14.879,6.073c-5.392,0 -10.144,-1.995 -14.323,-5.971c-4.14,-3.971 -6.248,-9.042 -6.248,-15.196c-0,-5.868 2.032,-10.808 6.022,-14.798c4.038,-4.026 8.941,-6.07 14.747,-6.07c5.882,-0 10.766,2.044 14.728,6.07c4.009,4.025 5.975,9.01 5.975,14.944c0,5.862 -2.004,10.845 -6.022,14.948Zm-14.559,-43.879c-8.083,-0 -14.981,2.832 -20.703,8.459c-5.825,5.657 -8.677,12.376 -8.677,20.217c0,8.952 3.162,16.197 9.505,21.688c5.75,5.006 12.215,7.484 19.452,7.484c8.168,-0 15.123,-2.779 20.882,-8.43c5.759,-5.579 8.63,-12.381 8.63,-20.389c-0,-7.967 -2.824,-14.813 -8.555,-20.502c-5.702,-5.695 -12.553,-8.527 -20.534,-8.527Z" style="fill:#114370;fill-rule:nonzero;"/><path d="M588.322,374.069c1.781,0.597 3.64,0.606 5.504,0.042c1.91,-0.556 3.443,-1.816 4.685,-3.74c0.455,-0.725 0.81,-1.551 0.969,-2.471c0.183,-0.933 0.288,-1.827 0.288,-2.712l-0,-23.985l33.682,-0.234l-0.285,24.996c0,0.896 0.854,7.264 6.937,8.549c1.893,0.388 3.685,0.152 5.386,-0.5c1.685,-0.646 2.887,-1.163 4.079,-2.718c1.153,-1.575 1.399,-3.99 1.399,-5.993l0,-63.689c0,-2.177 -0.664,-3.904 -2.051,-5.158c-1.362,-1.233 -2.954,-2.032 -4.811,-2.342c-1.846,-0.309 -3.726,-0.115 -5.652,0.64c-1.927,0.7 -3.405,1.955 -4.471,3.714c-0.816,1.456 -0.448,2.965 -0.448,4.584l0,21.521l-33.765,0l-0,-22.959c-0,-0.647 -0.056,-1.249 -0.139,-1.75c-0.07,-0.521 -0.275,-1.122 -0.539,-1.745c-0.978,-2.02 -2.398,-3.305 -4.342,-3.821c-1.925,-0.527 -4.524,-0.967 -6.383,-0.369c-1.927,0.611 -3.034,1.123 -4.512,2.64c-1.459,1.55 -2.048,4.398 -2.048,6.483l-0,62.393c-0,2.143 0.643,3.983 1.925,5.469c1.238,1.496 2.787,2.511 4.592,3.155Z" style="fill:#114370;fill-rule:nonzero;"/><path d="M694.314,309.568c29.282,-2.473 28.63,49.032 2.991,49.204c-19.011,0.133 -19.705,-19.729 -19.809,-23.101c-0.503,-23.122 12.643,-25.759 16.818,-26.103Zm0.342,65.888c34.371,0.969 39.711,-27.59 40.356,-36.267c0.672,-8.996 0.075,-48.966 -41.262,-46.339c-39.023,2.534 -36.413,43.335 -35.067,49.252c0.695,2.929 6.068,32.504 35.973,33.354Z" style="fill:#114370;fill-rule:nonzero;"/><path d="M771.405,355.105c-1.081,1.098 -4.395,2.095 -5.38,2.17c-8.409,0.431 -16.568,-3.697 -18.17,-4.19c-5.636,-1.659 -12.726,3.056 -11.653,10.002c1.709,11.143 25.192,12.495 28.924,12.244c21.339,-1.479 27.645,-13.657 28.224,-23.724c0.197,-2.774 3.585,-19.987 -22.349,-26.934c-2.834,-0.769 -17.763,-4.192 -13.084,-11.089c3.595,-5.343 12.558,-3.105 15.464,-2.278c1.702,0.443 12.715,5.899 15.076,-4.603c2.45,-10.997 -15.631,-17.814 -34.672,-12.11c-10.414,3.103 -16.179,11.708 -15.927,22.475c0.175,9.249 1.172,17.768 21.183,23.082c12.047,3.182 13.418,5.693 14.098,7.047c1.902,3.859 -0.5,6.807 -1.734,7.908Z" style="fill:#114370;fill-rule:nonzero;"/><path d="M828.484,310.438c4.371,-0.04 10.843,2.957 10.973,10.733c0.112,6.641 -4.267,10.662 -9.515,10.921l-12.005,0.098l-0.13,-21.792l10.677,0.04Zm-28.406,56.68c-0.059,3.819 3.861,7.298 8.52,7.298c3.699,-0 8.182,-1.674 9.29,-7.927c0.182,-0.933 0.157,-18.368 0.157,-18.368c3.419,0.376 17.876,0.351 21.282,-0.617c4.587,-1.278 18.999,-5.288 18.999,-27.037c-0.025,-21.901 -20.099,-25.816 -25.026,-25.764c-3.112,0.007 -25.49,-0.185 -26.448,0.073c-0.477,0.168 -3.38,0.469 -5.162,2.745c-1.828,2.351 -1.695,4.439 -1.695,4.439l0.083,65.158Z" style="fill:#114370;fill-rule:nonzero;"/><path d="M882.272,436.742c4.509,-0.065 11.136,3.01 11.252,10.997c0.134,6.844 -4.379,10.985 -9.743,11.219l-12.318,0.113l-0.138,-22.394l10.947,0.065Zm-27.474,-13.266c-1.942,2.414 -1.779,4.57 -1.779,4.57l0.118,66.861c-0.059,3.926 3.922,7.469 8.707,7.469c3.807,0 8.424,-1.685 9.577,-8.117c0.191,-0.964 0.105,-18.874 0.105,-18.874c3.551,0.425 18.368,0.362 21.882,-0.587c4.696,-1.343 19.5,-5.459 19.5,-27.79c-0.016,-22.474 -20.667,-26.472 -25.669,-26.431c-3.211,0.021 -26.197,-0.188 -27.193,0.077c-0.459,0.173 -3.442,0.478 -5.248,2.822Z" style="fill:#114370;fill-rule:nonzero;"/><path d="M870.873,374.416c2.056,-0 8.538,0.392 9.014,-8.788l-0,-64.434c-0.476,-4.236 -2.972,-7.531 -8.073,-7.531c-3.745,0 -8.878,0.982 -9.858,7.35l-0.061,62.873c-0.226,9.266 5.207,10.53 8.978,10.53Z" style="fill:#114370;fill-rule:nonzero;"/><path d="M888.787,310.912c1.888,0.033 11.674,0.281 12.356,0.281c-0,9.567 -0.305,44.38 -0.231,53.957c0,2.264 0.982,9.266 9.389,9.266c6.168,-0 8.653,-5.743 8.653,-8.002c0.144,-10.478 0.144,-45.633 0.144,-55.367c2.18,0 9.919,0.295 13.312,-0.361c1.73,-0.401 5.961,-0.988 6.296,-7.504c0.359,-6.853 -3.334,-8.324 -8.373,-8.531c-1.618,0.052 -37.204,-0.988 -43.306,-0.006c-2.347,0.368 -5.372,3.354 -5.372,7.763c0,7.99 5.294,8.443 7.132,8.504Z" style="fill:#114370;fill-rule:nonzero;"/><path d="M433.223,468.827l20.103,-28.684l-1.38,28.749l-18.723,-0.065Zm17.412,28.852c1.203,5.111 8.8,4.234 10.93,3.254c1.723,-0.83 7.643,-2.749 7.822,-15.826c0.067,-2.948 0.84,-48.146 0.119,-54.862c-0.846,-8.272 -4.062,-10.216 -9.661,-10.216c-1.551,0 -5.843,0.491 -10.23,4.772c-10.709,10.465 -45.558,59.299 -47.405,61.576c-12.864,15.536 2.779,18.956 9.779,11.873c1.473,-1.473 6.893,-9.284 9.656,-12.838c0,-0 24.069,0.259 29.194,0.09c-0.309,4.546 -0.475,10.86 -0.204,12.177Z" style="fill:#114370;fill-rule:nonzero;"/><path d="M101.558,439.345l-1.391,28.747l-18.728,-0.037l20.119,-28.71Zm-41.345,58.128c1.514,-1.491 6.903,-9.289 9.635,-12.834c-0,-0 24.086,0.263 29.221,0.063c-0.323,4.573 -0.485,10.876 -0.209,12.198c1.194,5.117 8.821,4.234 10.902,3.256c1.771,-0.828 7.692,-2.768 7.863,-15.845c0.016,-2.936 0.835,-48.142 0.12,-54.832c-0.914,-8.255 -4.092,-10.235 -9.68,-10.235c-1.539,0 -5.837,0.485 -10.216,4.789c-10.722,10.481 -45.575,59.329 -47.434,61.575c-12.837,15.526 2.808,18.946 9.798,11.865Z" style="fill:#114370;fill-rule:nonzero;"/><path d="M791.492,468.255l-19.305,-0.071l20.7,-29.274l-1.395,29.345Zm-51.313,17.844c-1.996,2.387 -3.319,4.491 -4.108,6.323c-0.501,-7.658 -7.57,-8.132 -7.57,-8.132l-20.943,0.022c0,0 0.076,-47.404 -0.37,-57.324c-0.147,-3.036 -2.968,-7.057 -8.029,-7.057c-5.204,0 -8.836,2.389 -9.422,6.947c-0.194,1.562 -0.391,61.306 -0.47,63.197c-0.219,5.734 2.464,11.16 8.12,11.125c1.398,-0 28.525,0.047 29.894,-0c1.003,-0.019 5.833,-0.524 7.888,-4.201c0.617,6.049 10.081,6.263 15.139,1.185c1.534,-1.505 7.083,-9.457 9.911,-13.103c0,0 24.809,0.298 30.114,0.092c-0.313,4.645 -0.508,11.074 -0.171,12.415c1.211,5.257 9.014,4.325 11.187,3.345c1.843,-0.838 7.938,-2.843 8.113,-16.162c0.034,-2.978 0.866,-49.098 0.127,-55.913c-0.936,-8.425 -4.208,-10.435 -9.98,-10.435c-1.6,-0 -6.003,0.495 -10.545,4.892c-11.031,10.668 -46.941,60.451 -48.885,62.784Z" style="fill:#114370;fill-rule:nonzero;"/><path d="M930.116,468.184l20.687,-29.274l-1.387,29.345l-19.3,-0.071Zm17.971,29.404c1.19,5.24 9.029,4.325 11.194,3.345c1.823,-0.838 7.906,-2.843 8.089,-16.162c0.038,-2.978 0.865,-49.098 0.142,-55.913c-0.907,-8.425 -4.211,-10.435 -9.99,-10.435c-1.555,-0 -5.988,0.495 -10.516,4.892c-11.07,10.668 -46.962,60.451 -48.864,62.784c-13.234,15.814 2.909,19.32 10.095,12.085c1.522,-1.505 7.099,-9.457 9.929,-13.103c-0,0 24.807,0.298 30.097,0.092c-0.33,4.645 -0.519,11.074 -0.176,12.415Z" style="fill:#114370;fill-rule:nonzero;"/><path d="M979.082,313.763l-1.365,28.744l-18.724,-0.058l20.089,-28.686Zm-41.341,58.119c1.509,-1.494 6.873,-9.287 9.627,-12.845c-0,-0 24.101,0.267 29.229,0.089c-0.301,4.547 -0.489,10.86 -0.216,12.17c1.233,5.117 8.799,4.231 10.907,3.247c1.778,-0.824 7.679,-2.747 7.867,-15.83c0.027,-2.929 0.809,-48.135 0.113,-54.83c-0.894,-8.275 -4.112,-10.242 -9.674,-10.242c-1.543,-0 -5.816,0.496 -10.229,4.798c-10.718,10.454 -45.58,59.3 -47.438,61.569c-12.838,15.519 2.802,18.968 9.814,11.874Z" style="fill:#114370;fill-rule:nonzero;"/><path d="M1007.73,373.565c1.421,0 28.57,0.044 29.879,0c1.336,-0.027 9.203,-0.841 8.817,-8.377c-0.348,-7.757 -7.547,-8.288 -7.547,-8.288l-20.939,0.029c0,-0 0.038,-46.577 -0.414,-56.361c-0.113,-2.987 -2.956,-6.943 -8,-6.943c-5.212,0 -8.807,2.353 -9.391,6.849c-0.235,1.51 -0.423,60.293 -0.527,62.137c-0.208,5.647 2.457,10.969 8.122,10.954Z" style="fill:#114370;fill-rule:nonzero;"/><path d="M995.249,437.47l12.554,-0.232c5.26,0.086 8.695,4.271 8.818,8.777c0.141,5.334 -3.172,9.203 -8.518,9.517l-12.854,0.096l0,-18.158Zm25.531,62.625c2.663,2.36 7.99,2.622 11.5,0.015c5.712,-4.298 3.153,-10.704 0.772,-13.359c-1.045,-1.143 -16.516,-18.195 -16.516,-18.195c0,0 18.596,-5.593 18.803,-21.498c0.404,-22.909 -19.585,-26.916 -27.178,-26.916c-0,0 -21.061,0.303 -21.89,0.347c-2.785,0.109 -9.062,0.617 -9.495,10.634c-0.395,9.446 0.64,53.43 0.019,62.326c-0.339,5.235 3.651,8.896 8.639,8.896c9.919,0 9.617,-8.896 9.617,-8.896l0.057,-24.369c0,0 24.364,29.824 25.672,31.015Z" style="fill:#114370;fill-rule:nonzero;"/><path d="M1057.92,437.47l12.544,-0.232c5.252,0.086 8.696,4.271 8.837,8.777c0.151,5.334 -3.171,9.203 -8.526,9.517l-12.855,0.096l0,-18.158Zm94.379,1.306l-1.392,29.488l-19.16,-0.074l20.552,-29.414Zm-112.861,-7.653c-0.424,9.446 0.63,53.43 0.037,62.326c-0.367,5.235 3.642,8.896 8.583,8.896c9.956,0 9.646,-8.896 9.646,-8.896l0.094,-24.369c-0,0 24.336,29.824 25.634,31.015c2.654,2.36 8.009,2.622 11.51,0.015c0.291,-0.223 0.564,-0.454 0.818,-0.687c2.447,3.779 9.957,3.309 14.276,-1.054c1.506,-1.536 7.021,-9.514 9.863,-13.177c-0,0 24.637,0.279 29.878,0.096c-0.32,4.672 -0.498,11.127 -0.197,12.49c1.223,5.242 8.987,4.343 11.142,3.336c1.816,-0.848 7.858,-2.812 8.046,-16.242c0.047,-2.995 0.856,-49.347 0.113,-56.22c-0.894,-8.476 -4.197,-10.476 -9.881,-10.476c-1.591,0 -5.948,0.473 -10.493,4.899c-10.945,10.739 -46.63,60.799 -48.55,63.114c-0.978,1.194 -1.797,2.317 -2.465,3.373c-0.508,-1.13 -1.148,-2.104 -1.788,-2.811c-1.026,-1.143 -16.535,-18.195 -16.535,-18.195c0,0 18.615,-5.593 18.85,-21.498c0.348,-22.909 -19.612,-26.916 -27.169,-26.916c0,0 -21.089,0.303 -21.983,0.347c-2.701,0.109 -8.987,0.617 -9.429,10.634Z" style="fill:#114370;fill-rule:nonzero;"/><path d="M214.532,468.19l20.578,-29.42l-1.378,29.494l-19.2,-0.074Zm-60.967,-12.658l-12.826,0.102l0,-18.164l12.507,-0.232c5.269,0.086 8.696,4.271 8.83,8.777c0.166,5.334 -3.176,9.203 -8.511,9.517Zm78.822,42.246c1.219,5.242 8.966,4.343 11.155,3.336c1.806,-0.848 7.836,-2.812 8.015,-16.242c0.034,-2.995 0.861,-49.347 0.113,-56.22c-0.881,-8.476 -4.186,-10.476 -9.895,-10.476c-1.546,0 -5.962,0.473 -10.478,4.899c-10.949,10.739 -46.607,60.802 -48.517,63.114c-0.992,1.203 -1.816,2.333 -2.493,3.394c-0.504,-1.137 -1.158,-2.12 -1.803,-2.832c-0.995,-1.143 -16.508,-18.195 -16.508,-18.195c0,0 18.582,-5.593 18.836,-21.498c0.358,-22.909 -19.608,-26.916 -27.194,-26.916c-0,0 -21.071,0.303 -21.936,0.347c-2.733,0.109 -9.03,0.617 -9.448,10.634c-0.409,9.446 0.639,53.43 0.034,62.326c-0.36,5.235 3.638,8.896 8.591,8.896c9.928,0 9.631,-8.896 9.631,-8.896l0.074,-24.369c0,0 24.332,29.824 25.653,31.015c2.666,2.365 8.018,2.622 11.495,0.008c0.301,-0.225 0.574,-0.458 0.831,-0.694c2.435,3.796 9.958,3.329 14.282,-1.04c1.499,-1.536 7.053,-9.514 9.865,-13.18c0,-0 24.602,0.282 29.88,0.099c-0.309,4.672 -0.481,11.127 -0.183,12.49Z" style="fill:#114370;fill-rule:nonzero;"/><path d="M323.084,501.624c3.289,-0.958 5.862,-3.662 5.817,-9.002c-0.118,-11.639 -0.089,-62.163 -0.264,-64.267c-0.414,-5.915 -4.923,-8.326 -9.365,-8.213c-4.144,0.128 -8.277,2.39 -9.049,8.771c-0.343,3.063 0.083,38.955 0.083,38.955c-0,0 -36.173,-43.981 -37.138,-45.099c-4.003,-4.576 -15.105,-4.408 -15.658,5.906c-0.153,2.768 0.052,62.911 0,64.06c-0.458,6.646 4.051,10.11 9.373,9.598c3.365,-0.316 7.914,-1.086 8.943,-7.257c0.538,-3.113 0.158,-40.944 0.158,-40.944c6.881,7.905 34.38,42.551 35.392,44.043c1.988,2.893 7.43,4.732 11.708,3.449Z" style="fill:#114370;fill-rule:nonzero;"/><path d="M380.395,476.762c-2.339,3.351 -5.59,5.913 -10.914,7.171c-1.029,0.25 -4.353,0.338 -5.11,0.499c-0.79,0.178 -9.765,-0.182 -10.283,-0.182l-0,-46.828c1.19,-0.175 10.162,-0.175 12.536,0.111c8.777,0.938 11.327,4.657 13.241,6.635c3.782,3.847 8.527,21.154 0.53,32.594Zm24.474,-17.353c-0.38,-24.227 -17.5,-38.562 -36.645,-38.889l-24.124,-0.075c-5.69,0.324 -8.138,5.121 -8.138,6.88l0,64.77c-0.511,6.493 4.29,9.145 8.984,9.238l16.595,0.365c24.06,1.05 43.776,-15.693 43.328,-42.289Z" style="fill:#114370;fill-rule:nonzero;"/><path d="M538.349,437.598c1.169,-0.186 10.166,-0.186 12.53,0.077c8.76,0.957 11.323,4.649 13.276,6.637c3.748,3.862 8.494,21.183 0.493,32.603c-2.357,3.361 -5.575,5.94 -10.924,7.178c-0.985,0.255 -4.323,0.339 -5.11,0.505c-0.776,0.173 -9.701,-0.202 -10.265,-0.202l0,-46.798Zm-9.171,63.872l16.635,0.394c24.032,1.062 43.731,-15.711 43.303,-42.302c-0.376,-24.214 -17.486,-38.559 -36.631,-38.908l-24.109,-0.056c-5.688,0.33 -8.116,5.129 -8.116,6.907l0,64.759c-0.58,6.5 4.254,9.134 8.918,9.206Z" style="fill:#114370;fill-rule:nonzero;"/><path d="M634.048,437.47c2.167,0.088 8.631,-0.925 8.57,-8.71c-0.009,-6.727 -5.863,-8.183 -8.75,-8.271c-0.245,-0.018 -29.842,-0.144 -29.842,-0.144c-4.986,0 -8.19,3.773 -8.111,8.177l-0.079,62.819c0.187,10.676 7.525,9.899 9.243,10.057c1.742,0.182 25.132,-0.065 30.331,-0.264c5.478,-0.201 8.227,-3.436 7.955,-8.539c-0.367,-7.307 -7.024,-8.199 -9.802,-8.324c-0.212,-0.021 -19.22,0.096 -19.22,0.096l0.041,-15.194c0,-0 14.801,0.166 17.016,-0.12c2.223,-0.298 9.989,0.05 9.821,-8.519c-0.194,-9.067 -10.575,-8.344 -10.646,-8.339c-0.268,-0.001 -2.533,-0.007 -16.191,-0.043l0.034,-14.619l19.63,-0.063Z" style="fill:#114370;fill-rule:nonzero;"/><path d="M41.802,570.201l1127.39,-0l-0,-4.772l-1127.39,0.011l0,4.761Z" style="fill:#114370;fill-rule:nonzero;"/><path d="M231.447,243.762l47.452,-86.705c2.853,0.684 5.905,1.076 9.092,1.076c0.287,-0 0.564,-0.024 0.846,-0.029l0.331,85.658l-57.721,0Zm208.378,-80.136c-0.95,-34.898 -23.422,-65.595 -56.176,-83.206c-21.768,-11.702 -52.56,-12.693 -70.779,-12.04c-0.398,-0.022 -0.801,-0.017 -1.205,0.012l-0.978,0.073c-6.894,0.311 -11.589,0.822 -12.726,0.954l-0.947,0.071c-6.477,0.484 -11.254,7.5 -10.667,15.666c0.587,8.169 6.316,14.396 12.794,13.911l2.142,-0.161l0.001,0.012c0.252,-0.028 0.489,-0.042 0.739,-0.067l9.384,-0.702c56.599,-2.623 84.986,27.097 91.942,56.187c7.358,30.778 -5.221,58.163 -32.044,76.582c-20.12,13.816 -44.159,13.132 -54.914,11.928l-0.389,-100.961c-0.001,-0.114 -0.004,-0.229 -0.007,-0.343c0.02,-0.937 0.017,-2.236 -0.092,-3.585c-0.031,-0.614 -0.103,-1.223 -0.215,-1.822c-0.187,-1.143 -0.475,-2.216 -0.917,-3.019c-3.427,-8.049 -14.12,-13.921 -26.78,-13.921c-11.232,0 -20.9,4.63 -25.328,11.298c-0.378,0.492 -1.462,2.372 -2.568,4.342c-0.166,0.267 -0.328,0.541 -0.481,0.822l-91.798,167.74c-4.151,7.585 -2.227,16.751 4.295,20.474c6.523,3.721 15.175,0.588 19.327,-6.999l24.492,-44.755l73.347,0l0.153,39.597c0.03,7.675 6.15,13.873 13.667,13.843c7.518,-0.03 13.589,-6.277 13.559,-13.952l-0.15,-38.994c103.836,2.017 124.257,-74.482 123.319,-108.985Z" style="fill:#fff;fill-rule:nonzero;"/><path d="M1069.2,264.444l4.677,0c4.884,0 7.98,-2.678 7.98,-6.722c0,-4.568 -3.303,-6.564 -8.14,-6.617c-2.202,0 -3.773,0.211 -4.517,0.421l0,12.918Zm-4.564,-16.121c2.305,-0.473 5.618,-0.735 8.771,-0.735c4.884,-0 8.036,0.892 10.238,2.888c1.788,1.575 2.786,3.991 2.786,6.721c-0,4.674 -2.946,7.772 -6.672,9.032l-0,0.158c2.729,0.945 4.357,3.466 5.204,7.142c1.148,4.936 1.995,8.35 2.729,9.715l-4.734,-0c-0.574,-0.998 -1.364,-4.043 -2.362,-8.455c-1.044,-4.883 -2.936,-6.721 -7.086,-6.879l-4.31,-0l0,15.334l-4.564,-0l-0,-34.921Z" style="fill:#114370;fill-rule:nonzero;"/><path d="M1101.98,265.416c0,14.704 -11.923,26.626 -26.622,26.626c-14.709,-0 -26.623,-11.922 -26.623,-26.626c-0,-14.705 11.914,-26.626 26.623,-26.626c14.699,-0 26.622,11.921 26.622,26.626Z" style="fill:none;stroke:#114370;stroke-width:7.65px;"/></g></g></svg>